<svg xmlns="http://www.w3.org/2000/svg" width="1376" height="2000" viewBox="0 0 1376 2000"><path fill="#fff" d="m373.4 147.2-1.7 3.3-12.5 21.5-12.4 21.5-14.3 24-14.2 24-20.8 35.4-20.7 35.4-5.5 8.9-5.4 9 9.2 15.7 9.2 15.6 11.5 19.5 11.5 19.5 6.3 10.5 6.2 10.5 5.4 9.5 5.5 9.5L341 458l10.3 17.5 8.4 14.4 8.3 14.4v.5l-17.2 29.4-17.1 29.3L327 575l-6.7 11.5-9.3 16-9.3 16-15.2 26-15.2 26-3.1 5.1-3 5.2 3.7 6.3 3.8 6.4L305 749l32.2 55.5 5.7 9.5 5.8 9.5 11.8 20.5 11.8 20.5 2.3 3.6 2.3 3.7 112.8-.5 112.8-.4 3.7-6.7 3.7-6.6-.4-.5-.4-.4 2.9-3.7 2.9-3.7 13.4-22.9 13.4-22.9L652 786l10.3-17.5 3.2-5.5 3.2-5.5 9.4-16.3 9.3-16.2h.6l.5.1 4.2 7.2 4.1 7.2L732 800l35.2 60.5 3.2 5.5 3.2 5.5 112.7.1 112.8.1 8.7-14.9 8.7-14.9 12-20.4 12-20.5 7.1-12.2 7.2-12.3 19.2-33 19.2-33 8.6-14.5 8.5-14.4v-2.1L1097 657l-13.2-22.5-16.6-28.5-16.6-28.5-8.1-14-8.2-14-13.1-22.7-13.2-22.7 8.4-14.3 8.4-14.3 22.8-39 22.7-39 5.2-9 5.2-9L1091 362l10.4-17.5 3.8-6.5 3.8-6.5v-2.4l-6.7-11.3-6.6-11.3-8.2-14-8.2-14L1069 261l-10.4-17.5-5-8.6-5.1-8.6-16-27.6-16-27.5-.6.4-.6.3v-2.4l-5.8-10-5.8-10-1.6-2.7-1.6-2.8H375.1zM938 196.5v.4l-5.8 9.8-5.9 9.8-10 17-10 17-10.8 18.5-10.8 18.5-5.7 9.5-5.7 9.5-95.4.3-95.4.3-9.6 16.7-9.6 16.7-17.8 30-17.7 30-15.1 25.5-15 25.5L589 466l-8.7 14.5L570 498l-10.3 17.5-10.7 18-10.8 18-25.7 43.5-25.8 43.5-6 10.2-6.1 10.3H338v-1.3l3.7-6.6 3.6-6.6 1.7-2.5 1.8-2.5 7.5-13 7.5-13L385 577l21.3-36.5L417 522l10.7-18.5 13.9-23.7 13.9-23.7 1.6-2.8 1.7-2.8 21.9-37.5 22-37.5 16.4-28 16.5-28 3.2-5.6 3.2-5.6V307H340v-1l2.4-3.8 2.3-3.7 26.3-45 26.4-45 3.5-6.3 3.5-6.2H938zm-64.5 178.2 9 15.6 3.6 6.1 3.6 6.1 9.3 16 9.3 16 9.2 16 9.2 16 26 44.5 26 44.5 9.8 17 9.8 17 2.7 4.5 2.7 4.5 16.6 28.6 16.6 28.5.7 1.7.6 1.7H899.3l-13.5-22.8-13.5-22.7-5.5-9.5-5.5-9.5-8.5-14.5-8.5-14.5-13.7-23.5-13.8-23.5-3.2-5.5-3.3-5.5-12.3-21-12.3-21-7.7-13-7.7-13-7.8-13.5-7.8-13.5-4.2-7-4.2-7-10.6-18.1-10.6-18.1-.7-1.6-.6-1.7h70.3l70.4.1zM671 541.7v112.6l-1.4 1.6-1.3 1.6-21.4 36.5-21.3 36.5-8.2 14-8.1 14-5.8 10-5.8 10-5.9 9.7-6 9.8H584v-1.9l-5.5-9.1-5.5-9.1-19.2-32.7-19.1-32.7-5.5-9.5-5.5-9.5-2.5-4.6-2.6-4.6 4.5-7.9 4.5-7.9 18.4-31 18.3-31 14.2-24 14.2-24 27.3-46 27.3-46 7.2-12 7.2-12 3.7-6.8 3.8-6.7h1.8zm363 169.5v.6l-4.6 7.9-4.7 7.8-24 41-24 41-3.1 5.2-3 5.3H840v-.9l7.2-12.3 7.2-12.3 17.1-29 17.1-29 7.4-12.7 7.5-12.8 15-.2 15-.3H1034zm-24.5 733.4-4 1.4-7.2 2.6-7.2 2.6v.6l.1.7-.1 28.8-.1 28.9-4.4-3.9-4.4-3.9-4.9-2.7-4.9-2.6-5.9-1.6-5.9-1.5h-15.8l-6.2 1.6-6.1 1.6-6 3.1-6 3.2-6.1 6.1-6 6.2-3.2 6.4-3.1 6.4-1.6 6.5-1.5 6.4v22.1l1.5 5.8 1.5 5.8 2.7 5.4 2.7 5.5 4.8 5.5 4.8 5.5v-1.4l2.1 2.6 2 2.7 8.2 4 8.2 4.1 7.4 1.1 7.3 1.1 8.2-1.2 8.1-1.1 7.2-3.5 7.1-3.5 5.1-5.6 5.1-5.6.4 1.4.5 1.3 1.5 6.3 1.6 6.4v.8h18v-164l-.8.1h-.7zm-39 72.8 5 2.3 3.1 2.6 3.1 2.6.7-.7.8-.7-.3 1-.3 1 3.7 7.6 3.8 7.5.6 7.6.6 7.5-1.3 5.4-1.3 5.4-2.8 5.7-2.9 5.7-1 .6-1 .6.6 1.2.7 1.2-.8-.7-.8-.7-2.8 2.4-2.9 2.3-5.7 2.3-5.8 2.2-7.5.1h-7.5l-4.4-1.3-4.5-1.3-6.1-6.1-6.2-6.2-2.3-6-2.3-6-.5-9-.4-9 1.6-5.5 1.6-5.5 3.8-5.5 3.7-5.5h1l3.5-2.7 3.5-2.6 3.5-1 3.5-1 9-.1 9-.1zm-367.7-69.1-10.8 4.2V1607h23l.5-2.3.6-2.2-.3-78.9-.3-78.9-1-.3-1-.3zm483.4 3.9-1.2 1.2v16.7l1 2 1.1 1.9h19.7l1.1-1.4 1.2-1.4-.3-9.8-.3-9.9-10.5-.3-10.5-.3zm-921.4 11.3-11.8 3.9v26.4l-4.7 1.8-4.8 1.7-6.5 2.6-6.5 2.7-.1 6.7-.2 6.7H153v56.1l1.1 7.2 1.1 7.2 2.9 6.2 3 6.3 4.5 3.5 4.6 3.4 5.4 2.1 5.5 2 6.7.6 6.7.6 7.4-1.1 7.5-1.2 4.2-1.9 4.3-1.8-2-6.9-2.1-6.8-.5-2.3-.6-2.4-2.6.7-2.6.6-9.5.5-9.5.5-3.5-1.8-3.4-1.8-2.1-3.5-2-3.5v-62l18.5-.5 18.5-.5.3-9.3.3-9.2H178l-.2-.3-.2-.2-.5-18.5-.6-18.5zm228.7-1.4-6 1.9-4.2 1.6-4.2 1.5-.3 13.2-.3 13.1-11.2 4.5-11.3 4.5v13.6h21.7l.6 31.7.5 31.8 2.1 6.6 2.1 6.6 3 4.2 3.1 4.2 4.6 2.9 4.6 2.9 5.1 1.8 5.1 1.7h20l6.2-1.8 6.3-1.9 1-1.2 1-1.2-2.2-8.4-2.2-8.4-.2-.3-.2-.4-7.7 1.7-7.6 1.7-4.7-.7-4.7-.7-3.3-1.5-3.3-1.6-1.9-3.7-1.9-3.8-.5-15.3-.5-15.4.6-15.8.6-15.7H440v-19h-37v-33.8l-.6-1.6-.6-1.6-1.2.1-1.1.1zm-114 32-5.9.9-5.5 1.6-5.5 1.6-6 3-6.1 3-6.5 6.7-6.5 6.6-3.2 6.6-3.2 6.5-1.6 6.5-1.5 6.4v16l1.5 7 1.5 7 3.1 6.1 3 6.1 3.7 4.4 3.7 4.5 4.7 3.8 4.7 3.7 6.3 2.8 6.3 2.8 5.5 1.4 5.5 1.3h10.1l10-.1 7.5-2.2 7.4-2.3 5.7-3 5.7-3 6.1-6.4 6-6.3 3-6.3 3-6.4 2.1-8.4 2.2-8.5-.6-9.5-.6-9.5-2-6.5-2-6.5-3.8-6.4-3.8-6.4-6-5-6-5-6-2.8-6-2.8-6-1.5-6-1.4-6-.5-6-.5zm23 23.8 6 2.8 3.4 3.4 3.4 3.4 3.1 6.5 3.1 6.5v23.1l-3.8 7.7-3.8 7.7-3.5 2.8-3.4 2.7-.1 1.5-.1 1.5-.4-1.2-.5-1.2-4.2 1.8-4.2 1.8-5.6.7-5.5.7-6.3-1-6.2-1-4.5-2.3-4.6-2.2-3.5-3.9-3.5-4-2.5-5.3-2.4-5.4-1.1-6.5-1.1-6.5 1.1-6.5 1.1-6.5 2.4-5.3 2.4-5.3 3.2-3.7 3.2-3.6 5.3-2.6 5.2-2.5 4.4-1 4.5-.9 6.5.5 6.5.5zm200.5-24.2-3.5.4-6.2 1.4-6.3 1.5-6.5 3.2-6.6 3.2-6 6.3-5.9 6.4-2.6 5.2-2.7 5.2-1.9 5.5-1.9 5.5-.6 9.6-.6 9.5 1.2 6.9 1.2 6.9 1.9 5.3 1.9 5.4 4.6 6.5 4.7 6.5 5.1 4.1 5.2 4.1 6.8 3.3 6.8 3.2 7.2 1.2 7.1 1.3 8.1-1.2 8-1.1 6.5-3.2 6.5-3.2 5.7-5.6 5.7-5.7.5 2.6.5 2.6.6 5.2.7 5.3H569v-110h-19.7l-1.1 6.6-1.1 6.6-.5.5-.4.5-3.8-4.2-3.7-4.1-1.3.5-1.4.5.3-1.2.2-1.2-1.7.1-1.7.2.1-.7v-.6l-.1-1-.1-1-1 1.5-1 1.5v-3.3l-4.7-1.6-4.8-1.5-6.5-1.1-6.5-1-1 .2-1 .1zm22.6 23.7 5.1 2.4 4.2 3.7 4.1 3.7 3.3 6.7 3.2 6.6v23l-3.3 6.9-3.3 7-3.8 3.6-3.8 3.7-6.4 2.4-6.4 2.4h-16l-5.2-1.8-5.1-1.8-4.7-4.1-4.6-4.1-2.3-4.6-2.4-4.6-1.2-4.5-1.2-4.5v-16.4l1.8-5.3 1.7-5.3 2.2-3.5 2.3-3.6 3.8-3.3 3.8-3.4 3.4-1.4 3.5-1.5 4.1-.8 4.1-.9 7 .5 6.9.5zm149.6-21.4-7.4 2-5.1 2.9-5.2 3-4.6 4.4-4.6 4.4-3.6 6.4-3.5 6.4-2.4 7.5-2.3 7.5.1 12 .1 12 2.6 8.1 2.7 8.1 3.8 5.9 3.9 5.9 2.6 2.7 2.6 2.8 6.1 3.9 6.1 4 6.2 2 6.2 2.1 7.5.6 7.5.6 6-1.1 6-1.1 6.3-3.1 6.4-3.1 5.3-5.4 5.3-5.4h.9l1.2 5.7 1.2 5.8.5 1.7.5 1.8H753v-110.1l-9.2.3-9.2.3-2.1 7.3-2.1 7.2-5.3-5.4-5.3-5.4-5.3-2.6-5.2-2.5-4.4-1-4.4-1.1-9 .1h-9zm31.6 20.3 4.3 1.5 4.1 2.9 4.1 2.8 2.8 3.9 2.8 3.8 2.3 5.7 2.2 5.6v19l-2.2 5.6-2.3 5.7-3 4.1-3 4.2-4.4 2.8-4.4 2.8.5.6.5.5-1.3-.1-1.3-.1-6 1.3-6 1.3-6-.5-6-.6-4-1.7-4-1.6-3.6-2.9-3.6-2.8-.8.7-.8.7.6-1 .6-1.1-3-4.4-2.9-4.3-1.5-5-1.5-5.1v-17.1l1.5-5 1.5-5 3.3-4.8 3.2-4.8 5.2-3.6 5.2-3.6 4.8-1.3 4.8-1.4 6.5.4 6.5.4zm463.1-19.9-7.6 2.2-7.1 4.2-7 4.2-4.2 4.7-4.1 4.7-4 8-3.9 8.1-1.6 7.5-1.6 7.5.5 8.5.6 8.5 2.5 8 2.6 8 4.5 6.8 4.6 6.8 5.9 4.3 5.9 4.4 7.5 3.1 7.6 3.1 8.1 1.2 8.2 1.2 8.4-1.3 8.4-1.2 6.2-2.2 6.2-2.3 5.8-3.8 5.7-3.8 4.4-5.2 4.4-5.1 2.2-4.5 2.2-4.4 2-5.6 1.9-5.5.6-11 .5-11-1.6-7.3-1.5-7.3-3.3-6.7-3.2-6.7-6.6-6.6-6.5-6.6-6.5-3.1-6.5-3.2-7-1.5-7-1.5-9.5.1h-9.5zm32 20.9 5.5 2 4.7 4.4 4.7 4.4 2.1 4.9 2.1 5 1 7.6 1 7.7-1.1 6.5-1 6.5-2.1 4.8-2 4.8-5.1 4.8-5.2 4.8.2.5.2.6-1.7.1-1.7.1-6 1.7-6 1.7-6.5-.5-6.5-.6-4.9-1.8-4.9-1.8-4.7-4.2-4.7-4.2-2.8-6.2-2.7-6.2-.7-7.1-.6-7.1.7-5.8.8-5.8 2.5-5.3 2.5-5.3 4.2-4.2 4.2-4.1 4.2-2 4.2-2.1 4.3-.9 4.4-.8 6 .5 6 .5zm-426.7 15.9.5 36.3 1.7 6 1.7 6 2.1 4.5 2.2 4.5 6.2 6.3 6.3 6.3 5.8 2.5 5.8 2.6 6.5 1.4 6.5 1.4h13.1l5.9-1.1 6-1.1 6.2-2.8 6.3-2.9 5.6-5.3 5.6-5.3 2.6-4.4 2.5-4.4 2-6.6 2-6.6.5-36.8.4-36.7h-24.1l-.3 35.7-.3 35.8-2.3 5.6-2.3 5.7-2.7 2.7-2.7 2.8-4.5 2.1-4.5 2.1h-16l-3.9-1.4-3.9-1.3-3.8-3.5-3.8-3.5-2.3-5.6-2.3-5.7-.3-35.8-.3-35.7h-24.1zm309.8 17.2v53.4l.6 1.6.6 1.6h22.8v-110h-24zm-44.5 33.9-2 1.5v19.6l1.4 1.4 1.5 1.4 9.3-.4 9.3-.4 1-1 1-1 .2-9.6.3-9.7-1.3-1.3-1.3-1.3-8.7-.3-8.7-.3z"/></svg>