<svg xmlns="http://www.w3.org/2000/svg" width="1365.333" height="1365.333" viewBox="0 0 1024 1024"><path fill="#3aa9be" d="m199.7 145.9-1.3 1.6-2.9 4.5-3 4.5-1.1 2-1.2 2-5.1 9.3-5.1 9.3v1.6l-2.5 2.9-2.6 2.9-.5 2.2-.6 2.3H172v3.4l-1.9 2-1.9 2.1-2.7 5.3-2.7 5.2-.9.6-.9.5.5.9.5.8-1.3.5-1.3.5-2.7 5.3-2.8 5.4-4 6.4-3.9 6.3v.9l-2.8 4.2-2.9 4.2-3 5.5-3 5.5-4.4 7.5-4.5 7.5-5.1 9-5.1 9-.7 2.2-.6 2.3h-1.8l-5.7 10.2-5.7 10.3-2.1 3-2.2 3-2.2 3.8-2.2 3.8v4l2.3 4.2 2.3 4.2 2.7 4.2 2.7 4.3v1.7l5 7.6 5 7.6v1.9l1.4 1.1 1.4 1.2 3.2 6.2 3.2 6.2 5.3 8 5.3 8 3.3 6.5 3.2 6.5.6.5.6.5 2.5 4.5 2.4 4.5 1.8 1.9 1.8 2v2.1l5.6 10 5.6 10 1.2.7 1.1.8h-1.8l1.5 1.7 1.6 1.8 2.7 5.5 2.8 5.5 4 6 4 6 .6.5.6.5 3.5 7 3.5 7 3.7 6.2 3.8 6.3-.1 1.7v1.8l-1.9 3-1.9 3-1.4 2.5-1.4 2.5-3.6 6.8-3.7 6.7-4.4 6.8-4.3 6.7-5 8.5-5 8.5-2.8 5-2.9 5-2.1 4-2.1 4.1-5.5 8.9-5.6 9-1.4 3.2-1.4 3.3h-1.3l-.7 3-.7 3.1-2.8 3-2.7 3.1-5.4 9.6-5.3 9.7-6.8 11.3-6.8 11.3v1l-5.5 8.7-5.6 8.7-.6 2.3-.5 2.3 1.7 4 1.8 3.9 1.4 1.2 1.4 1.1 2.6 5.5 2.6 5.5 5.9 10.1 5.9 10.1 1.2 2 1.2 2 3.3 5.2 3.2 5.3v1.5l3.5 5.2 3.4 5.1 2.1 3.6 2 3.6 2 3.5 2 3.5 2.1 3.7 2.1 3.8 2.8 4 2.8 4 1.4 3.5 1.5 3.5 8 13.5 8 13.5 3.8 6.5 3.8 6.5 1.7 3 1.7 3 5.2 9 5.2 8.9.7.6.7.5 1.5 3 1.4 3 1.4 1.7 1.5 1.8 2.6 5.2 2.6 5.3 112.2.3 112.2.2 1.8-1.9 1.8-2 2-3.8 2-3.8 5.6-9.5 5.6-9.5 3.4-6.4 3.4-6.5 1.3-1.4 1.3-1.4 3.4-6.7 3.3-6.7 4.1-6.1 4-6.1.3-1.4.3-1.3.5-.5.5-.5 1.8-3.5 1.8-3.5 1.7-3 1.8-3 1.9-3 2-3 1.4-1.6 1.4-1.7 4.9-9.3 5-9.2.9-1.1 1-1.1 3.5-6 3.6-6 3.3-6.1 3.4-6.2-.3-.3-.3-.4 1.8-1.7 1.8-1.7 3.1 4.4 3 4.4v1.8l2.5 2.7 2.4 2.6h-.8l3.6 6.7 3.6 6.8 1.3 1.6 1.4 1.6v1.3l3.7 5.7 3.8 5.8 2.5 5 2.6 5 3.8 7 3.9 7 1.3 1.6 1.4 1.6v1.5l4.9 7.4 4.9 7.3.7 2.1.6 2h1.9v2.8l1.1.4 1 .3.2 1.5.2 1.5 3.2 5.6 3.2 5.6 1.3 1.4 1.3 1.4 3.7 7.5 3.8 7.5 3.5 6.4 3.6 6.4 2 2.8 2 2.9h223.5l1.6-1.2 1.5-1.3 1.8-3.5 1.8-3.5.8-1.5.9-1.5 5.7-9.5 5.8-9.5 2.2-4 2.2-4 1.1-2.5 1.1-2.5 2.3-3 2.3-3 1.9-3.5 1.9-3.5 4.4-7.5 4.4-7.5 5.5-9.5 5.5-9.5 7.7-13 7.7-13 .8-2.5.7-2.5 1.8-2 1.8-2 2.7-5.9 2.8-5.9 1.7-1.7 1.7-1.7 2.2-4.6 2.3-4.7h1.8v-2.6l1.3-2.7 1.2-2.7h1.3l2.8-4.8 2.8-4.7 2.1-3.8 2-3.7 3.4-5.7 3.3-5.7.2-2.8.2-2.9-1.3-1.1-1.3-1v-3.4l-2-2.2-2-2.1v-1.8l-3-4.1-3-4.2v-2h-2v-4h-1.8l-1-2.9-1-3-3.8-5.8-3.9-5.8-1.3-2.8-1.4-2.7H902v-2.8l-3.3-5.9-3.2-5.8-2.8-4.5-2.8-4.5-4.5-8-4.6-8-1.9-3-1.8-3-1.6-3.5-1.6-3.4-.7-.6-.7-.5-1.4-2.4-1.3-2.4-2.6-4.6-2.5-4.6-1.9-2.5-2-2.5-1.4-3-1.5-3-1.2-2-1.2-2-3.9-7.2-3.8-7.3-1.2.7-1.1.6.7-.8.8-.8-3.7-6.6-3.6-6.6-.7-.5-.6-.5-2.8-6-2.8-6 1.1-4.5 1.2-4.5.9-.5.8-.5.4-1.4.3-1.5 1.4-1.8 1.5-1.7 2.8-4.8 2.8-4.8 1.7-3.5 1.7-3.5 1.2-1.5 1.2-1.5.4-1.5.3-1.5.6-.5.6-.5 3.8-6 3.8-5.9V451h1.5l1.3-3.3 1.3-3.2.7-.5.7-.5 6.9-12 7-12 .5-1.5.5-1.5.3-1 .2-1 .7-.5.8-.5 4.6-7.7 4.7-7.8v-1.8l.8-.4.7-.3 3.1-5 3.1-5 4.3-7.5 4.4-7.5 1.1-1.5 1.2-1.5 3.9-7.5 3.8-7.5.6-.5.5-.5 5.3-8.6 5.2-8.6.6-3 .6-2.9-9.8-16.5-9.7-16.4-2.3-3-2.2-3-3.1-6-3.2-6-2.7-4.8-2.8-4.8-1.7-1.9-1.7-2-1.4-3.3-1.3-3.3-2.9-4.5-2.8-4.4-3-5.4-2.9-5.5-5.6-9.8-5.7-9.9-1.7-1.9-1.7-2v-1.3l-8.2-14.1-8.2-14.1-3.4-4.9-3.5-5-1.9-4-2-4.1-2.6-4.5-2.7-4.6-3.3-5.7-3.4-5.7-1.1-.7-1.2-.8-310.7-.1-310.7-.1zm559.1 49.8 3.3.5-.7 2.2-.6 2.1-5.4 8.6-5.4 8.6v2.3h-2v2l-2.7 4.3-2.7 4.2-2 3.5-2 3.5-2 3.7-2.1 3.7-5.3 8.6-5.2 8.7v2.6l-1.3.5-1.3.5-3.8 7.3-3.8 7.3-2.7 4.1-2.8 4-.4 1-.4 1-5 8.2-4.9 8.2-2.4.6-2.4.6h-18.3l-82-.2-82-.2-2.1.7-2.1.6-6.4 11.1-6.4 11-1.5 2.4-1.5 2.4-5.2 8.6-5.3 8.7v1.8l-1.7 1.9-1.6 1.9-3.2 5.9-3.2 5.8-2 3.5-2.1 3.5-5.2 9-5.2 9-1.9 2.6-1.8 2.5-.3 1.4-.3 1.5-1.2 1.3-1.3 1.3-3.5 6-3.5 6v2.9h-2l-2 3.9-2 3.9-2.8 4.4-2.9 4.3-3.8 7-3.8 7-3.3 5.3-3.4 5.2v2h-1.6l-4.3 7.7-4.2 7.8-2.5 4-2.4 4-.7 1.5-.7 1.5-2.3 3.7-2.3 3.8v2.8l-1.5.6-1.5.5v3.1h-2v3h-1.5l-1.3 3-1.3 2.9-2.4 3.5-2.4 3.6-2.4 4.2-2.5 4.3-8.7 14.5-8.8 14.5-1.5 3.5-1.4 3.5-2.9 3.6-2.9 3.7v1.1l-4.7 7.8-4.8 7.8-2 3.6-2 3.6-2.6 3.9-2.5 3.9-4 7.5-3.9 7.5-.6.5-.5.5-3.2 5.3-3.2 5.2v1.7l-2.3 2.7-2.4 2.7-2.6 4.9-2.6 4.8-3.5 5.5-3.5 5.4-2.8.5-2.8.5-63 .2-63 .1-2.7-.6-2.8-.6v-1.7l2.6-5.3 2.5-5.3 1.2-2 1.2-2 1-1.5.9-1.5.2-1.4.3-1.3 1.8-1.3 1.8-1.3 4-7.8 4-7.9.6-.5.6-.5 2.3-4.5 2.3-4.5.7-.5.7-.5 4.8-8.5 4.8-8.5 1.8-2.7 1.9-2.7v-1.3l1.9-2.6 1.9-2.7 2.7-5 2.7-5 5.5-9.5 5.5-9.5.9-1.5.8-1.5 6.3-11 6.2-11-.2-.8-.2-.7h1.9l5.7-10.3 5.8-10.2 2.8-4.2 2.8-4.2v-1.6l2.5-3.8 2.6-3.7h-1.6l1.1-.8 1.2-.7 4.6-7.8 4.6-7.9v-2.6l1.6-1.3 1.5-1.3 2-3.7 1.9-3.7 3-4.5 3-4.5v-1l4.5-7.9 4.5-7.8 1-1.5 1-1.5 2.3-4.5 2.2-4.5 2.6-3.5 2.6-3.5 2.5-4.5 2.5-4.5 6.2-10.1 6.1-10.2v-2l.9-.4.9-.3 5.7-10.5 5.7-10.5 1.3-1.5 1.3-1.5.6-2.2.7-2.3 1.3-1.3 1.4-1.3 3.1-6 3.2-5.9 2.6-4.5 2.6-4.5.9-.3.8-.4-.6-.9-.5-.9h2.2l-.5-.9-.6-.9.8-.4.8-.3 2.7-4.9 2.7-4.9V308h-2.7l-2.8-.1-96.2-.2-96.1-.2-.7-.7-.6-.6 1.7-3.4 1.7-3.3 5.8-9.6 5.9-9.7v-2l.8-.4.8-.3 2.2-3.8 2.2-3.8V267h2l2.5-4.9 2.5-5 1-.6 1-.6v-2.6l4.5-6.9 4.5-6.8v-2.5l3.9-5.8 3.8-5.8 4.4-7.4 4.4-7.4 4-7.1 4-7 2.5-.6 2.5-.7 261.5-.1 261.5-.1zm-69 165 2 2.8 5.2 9.5 5.2 9.5 2.7 3.5 2.7 3.5 3.3 6.4 3.2 6.3 1.9 3.3 1.8 3.3 4.9 7.8 4.8 7.9 1.5 3 1.5 3 .6.5.5.5 1.3 3.2 1.3 3.3h1.8v2.6l1.8 2 1.7 2 .3 1.4.4 1.5.7.5.6.5 3.4 6.5 3.4 6.5 3.1 4.5 3 4.5.8.3.8.4-.5.8-.5.8 1.4 1.4 1.3 1.4.7 2.2.7 2.1 6.8 11.3 6.8 11.3 3.8 7 3.8 7 3 4.4 2.9 4.3 3.5 6.7 3.4 6.6 4.5 7.5 4.6 7.5.7.5.7.5 2.4 5 2.4 5 3.8 6.4 3.8 6.3v1.9l1.4.5 1.4.5.7 2.6.6 2.5 1.8 2.7 1.8 2.6 2.5 4 2.6 4 3.5 6.5 3.4 6.5 2.4 4 2.4 4.1 5 8.3 5 8.4 4.3 7.6 4.2 7.6 1.7 3.2 1.7 3.3-.8.7-.8.8-67.1.2-67.2.3-2.4-1.3-2.4-1.2-1.1-2-1.1-1.9-4.7-7.4-4.8-7.3v-.8l-8.3-14.3-8.4-14.3-3.1-5.6-3.2-5.7-1.5-1.2-1.5-1.2v-2.7l-7.1-11.8-7.1-11.8-1.8-3-1.7-3-3.4-6-3.3-6-.8-.3-.8-.4v-2.4l-3.1-5-3.2-4.9-2-3.5-2.1-3.5-2.8-5-2.9-5-1.9-3-1.9-3-3-5.5-3-5.5-1.8-3-1.7-3-4-6.5-4.1-6.5-.6-.5-.6-.5-4.2-8.2-4.2-8.2-.7-.3-.7-.3-1.8-3.5-1.8-3.5-3.8-6.5-3.8-6.5-2.2-4-2.3-4-1.3-1.5-1.3-1.5-3.2-6-3.2-6-3.7-6.3-3.6-6.3-1.1-2-1.1-1.9-1.6-1.8-1.7-1.9v-2.9l-1.7-2-1.8-1.9-2.3-4.5-2.3-4.5-2.4-4.5-2.5-4.5v2l-1.6-3-1.6-3-3.9-7.6-3.9-7.6V358h139.9zM495.2 472.2l.2 43.3-.1 4v4l-.1 65.6-.2 65.5-3.7 6-3.6 5.9-2.4 4.4-2.3 4.4-2.8 4.6-2.9 4.6-10 17-10 17-1.3 2.5-1.3 2.5-4.2 6.5-4.2 6.5-5.2 9.4-5.3 9.4-2.6 4.1-2.7 4.1-.5 1.5-.5 1.5-7.9 13.2-7.9 13.1-2.2 2.8-2.2 2.8-1.7-1.6-1.6-1.7v-.9l-4.6-7.9-4.6-7.8-.9-.3-.9-.4v-1.9l-5.7-9.7-5.6-9.7-4.6-7.9-4.6-7.8-1.6-2.7-1.6-2.6-2.5-4.5-2.5-4.5-2.3-4-2.2-4-.8-1-.8-1-2.1-3.8-2.1-3.7-2.1-3.8-2.1-3.7-1.8-2.5-1.7-2.5-2.7-5.2-2.6-5.2v-4.6l1.9-2.9 2-3-.5-.8-.5-.8h2l.6-2.3.7-2.2 2.3-3.1 2.3-3.1 5.8-9.4 5.7-9.4 3.1-6 3.2-6 3-4.5 3-4.5 5.9-10 5.8-10 2.7-4.6 2.7-4.5.7-2 .6-2.1 2.8-3.1 2.7-3.1 2.9-5.8 3-5.8 1.4-1.8 1.5-1.7h-1.8l1-.8 1-.7 2.8-4.2 2.7-4.3v-1.1l3.3-5.2 3.4-5.2 3.9-7.4 3.9-7.5 2.3-2.4 2.2-2.5v-2.5l4.3-6.6 4.2-6.5 3.7-5.9 3.6-5.9 4.3-7.9 4.2-7.9 2.3-3.2 2.4-3.2v-2.9l1.5-1.2 1.5-1.2V470h2.1l-.6-1-.6-1h1.6l2-3.8 2-3.7 2.5-4 2.5-4 .5-.5.5-.5 1.2-2 1.2-2 3.2-5.5 3.3-5.5 2.3-3.8 2.3-3.7h2zM755 709.6l18.4.2 1.8-.9 1.8-1v1.8l38.8.1 38.7.1 1.9.1h1.8l-.6 2.6-.7 2.6-2 2.7-2 2.8-.2 1.4-.3 1.4-3.2 4.7-3.2 4.7v1.9l-1.5 1.2-1.5 1.3.4.4.4.5-1.6 1.9-1.6 1.9-3.6 6.7-3.5 6.8-2.2 3.1-2.1 3-3.3 5.9-3.2 6-7.2 12-7.2 12-2.4 4.5-2.4 4.5-.7.3-.8.4v1.1l-.1 1.2-3.7 5.3-3.7 5.3-64.4-.1-64.4-.1-.8-.5-.8-.4 2.3-5.1 2.4-5 1.7-1.9 1.8-2h-1.7l1.6-1.3 1.5-1.2 1.3-3.5 1.3-3.5 1.3-1.5 1.2-1.5 3.6-6.8 3.6-6.9v1.6l2.8-4.5 2.8-4.4 4.4-8.3 4.4-8.3 1.6-1.7 1.6-1.7 3.1-5.6 3.2-5.7-.7-.7-.7-.8 1.1.6 1.1.6 1.9-4.2 1.9-4.2 3.3-4.7 3.2-4.8 2.3-5.2 2.4-5.3 2.4-1.2 2.4-1.2 2-.4 2-.3 1 .5 1 .6z"/></svg>