<svg xmlns="http://www.w3.org/2000/svg" width="1365.333" height="1365.333" viewBox="0 0 1024 1024"><path fill="#fff" d="m197.4 147.2-1.7 3.3-12.5 21.5-12.4 21.5-14.3 24-14.2 24-20.8 35.4-20.7 35.4-5.5 8.9-5.4 9 9.2 15.7 9.2 15.6 11.5 19.5 11.5 19.5 6.3 10.5 6.2 10.5 5.4 9.5 5.5 9.5L165 458l10.3 17.5 8.4 14.4 8.3 14.4v.5l-17.2 29.4-17.1 29.3L151 575l-6.7 11.5-9.3 16-9.3 16-15.2 26-15.2 26-3.1 5.1-3 5.2 3.7 6.3 3.8 6.4L129 749l32.2 55.5 5.7 9.5 5.8 9.5 11.8 20.5 11.8 20.5 2.3 3.6 2.3 3.7 112.8-.5 112.8-.4 3.7-6.7 3.7-6.6-.4-.5-.4-.4 2.9-3.7 2.9-3.7 13.4-22.9 13.4-22.9L476 786l10.3-17.5 3.2-5.5 3.2-5.5 9.4-16.3 9.3-16.2h.6l.5.1 4.2 7.2 4.1 7.2L556 800l35.2 60.5 3.2 5.5 3.2 5.5 112.7.1 112.8.1 8.7-14.9 8.7-14.9 12-20.4 12-20.5 7.1-12.2 7.2-12.3 19.2-33 19.2-33 8.6-14.5 8.5-14.4v-2.1L921 657l-13.2-22.5-16.6-28.5-16.6-28.5-8.1-14-8.2-14-13.1-22.7-13.2-22.7 8.4-14.3 8.4-14.3 22.8-39 22.7-39 5.2-9 5.2-9L915 362l10.4-17.5 3.8-6.5 3.8-6.5v-2.4l-6.7-11.3-6.6-11.3-8.2-14-8.2-14L893 261l-10.4-17.5-5-8.6-5.1-8.6-16-27.6-16-27.5-.6.4-.6.3v-2.4l-5.8-10-5.8-10-1.6-2.7-1.6-2.8H199.1zM762 196.5v.4l-5.8 9.8-5.9 9.8-10 17-10 17-10.8 18.5-10.8 18.5-5.7 9.5-5.7 9.5-95.4.3-95.4.3-9.6 16.7-9.6 16.7-17.8 30-17.7 30-15.1 25.5-15 25.5L413 466l-8.7 14.5L394 498l-10.3 17.5-10.7 18-10.8 18-25.7 43.5-25.8 43.5-6 10.2-6.1 10.3H162v-1.3l3.7-6.6 3.6-6.6 1.7-2.5 1.8-2.5 7.5-13 7.5-13L209 577l21.3-36.5L241 522l10.7-18.5 13.9-23.7 13.9-23.7 1.6-2.8 1.7-2.8 21.9-37.5 22-37.5 16.4-28 16.5-28 3.2-5.6 3.2-5.6V307H164v-1l2.4-3.8 2.3-3.7 26.3-45 26.4-45 3.5-6.3 3.5-6.2H762zm-64.5 178.2 9 15.6 3.6 6.1 3.6 6.1 9.3 16 9.3 16 9.2 16 9.2 16 26 44.5 26 44.5 9.8 17 9.8 17 2.7 4.5 2.7 4.5 16.6 28.6 16.6 28.5.7 1.7.6 1.7H723.3l-13.5-22.8-13.5-22.7-5.5-9.5-5.5-9.5-8.5-14.5-8.5-14.5-13.7-23.5-13.8-23.5-3.2-5.5-3.3-5.5-12.3-21-12.3-21-7.7-13-7.7-13-7.8-13.5-7.8-13.5-4.2-7-4.2-7-10.6-18.1-10.6-18.1-.7-1.6-.6-1.7h70.3l70.4.1zM495 541.7v112.6l-1.4 1.6-1.3 1.6-21.4 36.5-21.3 36.5-8.2 14-8.1 14-5.8 10-5.8 10-5.9 9.7-6 9.8H408v-1.9l-5.5-9.1-5.5-9.1-19.2-32.7-19.1-32.7-5.5-9.5-5.5-9.5-2.5-4.6-2.6-4.6 4.5-7.9 4.5-7.9 18.4-31 18.3-31 14.2-24 14.2-24 27.3-46 27.3-46 7.2-12 7.2-12 3.7-6.8 3.8-6.7h1.8zm363 169.5v.6l-4.6 7.9-4.7 7.8-24 41-24 41-3.1 5.2-3 5.3H664v-.9l7.2-12.3 7.2-12.3 17.1-29 17.1-29 7.4-12.7 7.5-12.8 15-.2 15-.3H858z"/></svg>