<svg xmlns="http://www.w3.org/2000/svg" width="1834.667" height="1024" viewBox="0 0 1376 768"><path fill="#3aa9be" d="m1000.3 298.9-5.2 2.9.7.8.7.7-1.3-.7-1.3-.8-1.4 1.2-1.4 1.2.5 11.1.5 11.2v7.8l.1 7.8-.6.6-.6.6v10.8l1-.6 1-.6-.1 3.8-.1 3.8-.5-1.2-.5-1.3-1.6 1.6-1.6 1.6-1.1-1.6-1.2-1.6-.8.8-.8.7.6-1.1.6-1.1-2.7-2.5-2.7-2.5-3.3-1.6-3.3-1.6-7.7-1.7-7.7-1.8-.8.2-.8.2-8.7.1-8.7.2-4.2 1.8-4.2 1.9H929v2h-2.9l-.8 1.4-.8 1.3-3.5 1.9-3.5 1.8-.6-.1-.6-.2-.1 1.5-.2 1.4-.2 1.5-.1 1.6-1.5-.6-1.4-.5.6 1.5.5 1.5h-1.8l-3.5 5.2-3.4 5.3-.7 3.8-.7 3.7-.9.5-.8.5.4 2 .4 2h-2.6l-.2 1.7-.3 1.8v8.5l-.1 8.5.6 3 .5 3 1 2.5 1 2.5 1.6 5.6 1.6 5.6 1.9 2.1 1.8 2.2.5-.5.5-.6 1.6 3.3 1.7 3.3v-1.3l4.5 4.4 4.6 4.4h3l-.6.9-.5.9 2.7 2.1 2.6 2.1 7 2.2 7 2.1 10.6-.6 10.6-.6 4-1.5 4-1.5 2.5-.5 2.5-.5 4.8-4.5 4.7-4.5v-1.9l3.1-1.1 3.2-1.1h.5l.7 2.7.8 2.8.2 1 .3 1 1.5 3.7 1.6 3.8 2.3.1 2.3.2 2.5-.1h2.5l2-.1 2-.1-1.5-1-1.5-1h2l.1-5.4.2-5.3 1-1.9 1-1.8-.9-2.3-.9-2.3h2.2l-1.7-2.6-1.7-2.7 1-3.6 1-3.6-.4-10-.4-10-.1-7.5-.1-7.5-1.2-.7-1.1-.8h2.3l-.3-2.5-.2-2.5.9-.7 1-.6-.7-18.1-.8-18.1-.1-1-.2-1-.8-1.3-.7-1.2.8.1.8.1 1-.1 1-.1-1.2-.8-1.2-.7.9-4 .9-4-.3-16.5-.3-16.5-3.9-.2-3.9-.2zm-32.1 65.3 1.7.4.7.7.7.7h3.8l.5 1.5.6 1.5.9-.6.9-.5v2l1.9-.4 2-.4-.6 1.7-.6 1.7.8-.7.7-.7 1.4 1.3 1.3 1.4.6 3.1.5 3.2 2.9 4.6 2.9 4.6-.4 5.6-.3 5.6-.5 9.3-.4 9.3-1.1 1.3-1.1 1.3.6.6.6.5-2.1 1.2-2.1 1.1-1.4 3.2-1.5 3.2-1.3 1.6-1.3 1.6-5.5 2.3-5.5 2.2-2.2 1-2.1 1-6.4-.5-6.3-.6-6.3-1.1-6.3-1.1-3.7-2.3-3.7-2.4-2.7-3.2-2.8-3.2V422h-2v-4.5l-1.9-1.2-2-1.2.2-10.8.3-10.8 1.7-3.4 1.7-3.4V383h1.8l1.3-3.3 1.3-3.2 1.6-1.2 1.5-1.1V372l5.4-3.5 5.4-3.6 3.6-.9 3.6-.9 8.5.4 8.5.4zM610 298l-1.5.8-3.6 1.1-3.5 1.1h-3.3l-2.3 1-2.3 1.1-.2 20.7-.1 20.7-.1 5.5-.1 5.4 1.4 1.5 1.4 1.4-1 2.6-1.1 2.6-.3 17-.2 17v16.7l-.1 16.7.4 5.2.3 5.1-.8 2.9-.9 2.9 1.1.6 1 .6-.5 2.4-.4 2.4 1.4 1.2 1.4 1.1 9 .2 8.9.1v-.5l-.9-2.4-1-2.5.6-.6.6-.6.4-2.3.3-2.2.6-7.3.6-7.4-1.2-2.3-1.3-2.4.8-4.3.8-4.3v-30.8l-.1-7.7-.1-1.3-.2-1.2.5-21 .4-21-1-1.2-1-1.2 1.2-5.6 1.2-5.6-.7-10.9-.7-10.9-1.2-.4-1.1-.4zm478.2 5.2-1 1.3-.3 5.3-.4 5.2h1.3l-.2 1.7-.1 1.8-.7.5-.7.6.7 1.1.7 1.1 5.8.4 5.7.4v-1.2l3 .2 3 .2 1-1.8 1-1.8-1.3-.5-1.2-.5 1.3-.1 1.2-.1v-3h2v-9.1l-1.2-1.2-1.3-1.2-8.6-.3-8.6-.2zM171 311.7l-1.5.5-3 1.3-3 1.3-3.2 1.2-3.2 1.2-1.7 1.9-1.7 1.9.5 7 .5 7 1.1 1.3 1.1 1.3-.9 1.4-.9 1.4 1.2.8 1.2.8h-2.7l-1.9 2.4-1.9 2.4-4.4 1.3-4.5 1.3.5.7.4.7-1.8-.5-1.9-.5-1.6 1.6-1.6 1.6h-1.8l-1.2 2.7-1.3 2.8 2.2 1.7 2.2 1.8h-3.7l1.4.9 1.4.9 1.5-.6 1.5-.5-.7 1.1-.7 1.2 7.2-.5 7.2-.5 1.4 1.7 1.5 1.8-.7-2-.6-2 1 1 1 1 .4 10.2.5 10.3h-1.3l.3 11.2.2 11.2 1.7 1.8 1.7 1.9-1.5-.6-1.4-.5-.2 5.2-.2 5.3-.3 4.7-.2 4.6 1.8 4.4 1.8 4.3 1.1 2 1.1 2 1.4 2.7 1.3 2.8h1.8l.6 2 .6 2 1-.5.9-.6v1.7l6.8 2.2 6.7 2.2 9.5-.5 9.5-.5 6.1-.3 6-.3 1.2-.8 1.2-.7V451h-1.9l-.7-2.2-.6-2.1-1.5 2.4-1.4 2.4.6-2.8.6-2.9-1 .6-1 .6-.6-1.1-.7-1.1 1.1-1.1 1.2-1.2-.7 1.8-.6 1.7 1.4-.5 1.4-.5v-4.5l-.9-.6-.9-.6-3.7.8-3.6.9h-12.4l-2.6-1-2.7-1-1.5-1.6-1.6-1.5-1.1.4-1.1.4-1.3-1.3-1.3-1.4h2.6l-1-.8-1-.7-.3-3-.2-3-.1-1.5v-1.5l.7-10.1.6-10.1-1.1-.7-1.1-.7v-7.6l.8-.7.7-.8-.3-12.9-.4-12.9 2.9-1.1 2.8-1.1 4-.4 4-.4 9.1-.4 9.1-.3 1.3-.8 1.3-.8-.7 1.1-.7 1.2h3.2l-.5-.9-.6-.9.7-.4.8-.3-.3-6.7-.4-6.7-1.7-.6-1.8-.5-2.1.7-2.1.8-13.1-.6-13.1-.7-.6-.6-.7-.6-.1-17.3v-17.2l-2-.2-2-.2zm223.1 1.4-5.5 1.9-.8 1.2-.8 1.3v-1.7l-1.3 1.1-1.4 1.1-.6-.6-.5-.6-1.8 2.7-1.7 2.6-.4 9.7-.4 9.7-1.1 2.3-1.1 2.2-5.6 1.6-5.6 1.6-3.5 1.6-3.4 1.7.3 5.5.3 5.5.4.6.4.7 8.5-.4 8.4-.5 2.2 1.1 2.1 1.2-.7 5.1-.7 5.2-.1 8-.1 8 .3 7 .4 7 .9 2.4.9 2.4-.8.6-.8.6-.2 4.5-.2 4.5v4l-.1 4 .4 2 .4 2h.4l.3 1.5.3 1.5 1.5 3.5 1.5 3.5 4.4 4.1 4.3 4 1.4.9 1.4.8-.7-1.4-.7-1.4 1.5 1.9 1.6 2V453l2 2 2 2 1.8.1 1.7.1 4 .6 4 .5 8.2.1h8.1l1.4-1.1 1.3-1.1 3.2-.6 3.1-.7.8-1.7.7-1.7v-2l.1-2-.8-2.8-.7-2.9-1.2-1.2-1.1-1.3-3.6.8-3.5.9h-16.3l-3.1-1.8-3.1-1.7v-1.6l-2-2.1-2-2.2v-3.5l-1-.6-1.1-.7.1-14.1.1-14.2-.1-7.5-.2-7.5.5-5 .5-5 .1-3.2.1-3.2 2.1-1.2 2.1-1.1 8.3-.5 8.3-.5 2.1 1.2 2.2 1.1 5.4-.6 5.4-.7.7-2.2.7-2.1-.2-4-.2-4-.5-1.6-.5-1.7-2.2-.1-2.2-.1-8.3-.6-8.2-.6-1.5 1.2-1.4 1.2-1.1-.7-1.1-.7-4.4-.3-4.4-.3-1.5-1.4-1.4-1.5.5-3.9.4-3.9.5-12.1.5-12.1-1.3-1.1-1.3-1zm291.4 31.6-2 .5-.5.9-.5.8-6.4 1-6.3 1-1.2 1.1-1.3 1-.6-.7-.7-.6v2.3h-3v1.5l-3.7 2.5-3.7 2.5-3.7 3.5-3.7 3.5-3.1 6-3 6-1.4 6.2-1.4 6.2.8-.5.9-.5v1.9l-2 .5-2 .5v4.9l1 10.9 1.1 10.9 2.7 7 2.7 7 1.2 1.3 1.3 1.3v1.5l6 6.1 6 6.2 8.3 4.1 8.3 4.1 9.5.5 9.4.5 4.2.3 4.2.4 2.6-1.4 2.7-1.4h2.7l1.6-1.6 1.6-1.7-1.3-.9-1.3-1 1.5.5 1.5.4 3.1-1.3 3.1-1.3.6.5.5.6.7-2.1.6-2 3.5-2 3.5-2.1h.6l1.1 3.7 1.2 3.8 2.3 2.7 2.4 2.7 5.4.8 5.4.9 1.8-.4 1.7-.3.1-1.7.1-1.7-.1-.7-.1-.7-.4-5.7-.5-5.7.7-1.1.6-1.1.4-4.9.3-5-1.1-2.2-1.2-2.1.6-5.9.6-5.9.1-4 .1-4-.2-4-.2-4 .6-7.2.6-7.2-1-.6-1-.6v-8.8l1-.6.9-.6-.4-8.4-.5-8.4-.9-2.4-.9-2.4-6-.7-5.9-.7-1.6.7-1.6.6-.7 2.1-.8 2.2-.2 2.5-.1 2.5-.2 1.8-.1 1.8-1-.6-1-.6v2.3l-1.6-.6-1.7-.6 1.3 1.5 1.2 1.5h-1.1l-2-2.2-2-2.1.6-1 .6-1-.9.5-.9.5-2.5-2.5-2.5-2.6 2 1.4 2 1.5-1.9-2.3-2-2.3-1.2.5-1.3.5-4.6-2.5-4.5-2.6-1.6.6-1.5.6.5-.9.5-.8-5.2-1.1-5.2-1.1-4-.4-4-.4zm20 20.2 5.9 2.1h3.5l2.9 2.7 2.9 2.8 2.6 3.6 2.7 3.6v2.4l2.5 3.6 2.4 3.7-.5 7-.6 7.1 1 3.7 1 3.8h-1.7l.6 1.5.5 1.6-1.4 1.7-1.5 1.7-1.9 4.9-1.9 4.8-4.9 4.9-5 4.9H711v2.1l-.8-.4-.7-.5-4 2-4 1.9h-12.7l-1.2-1-1.1-.9-4.1-.4-4.1-.5-2.2-1.5-2.1-1.5.8-.8.7-.8-1.2.7-1.2.6-3.5-3.7-3.6-3.8v-1.4l-2.2-2.2-2.3-2.2 1.5.7 1.5.7-1.6-1.3-1.6-1.3-.7-2.5-.8-2.5-.4-6-.5-6-.4-1.3-.5-1.3 1-6.8 1-6.9 1.1-2.8 1.2-2.9.2-1 .2-1 .1-1.9.2-1.9.7.6.6.7 1.9-3 1.8-3.1 1.8-.6 1.7-.7 2.5-2.3 2.5-2.4 6-1.9 6-1.9 5.5.3 5.5.4zm-424.2-19.2-3.3.4v1.4l-2.2.1-2.3.1-6 1.2-6 1.2-1.5.6-1.5.6-.7-.1-.7-.2-.5 1.8-.6 1.8-3.5 1.4-3.5 1.4 1.2.8 1.3.8h-3.3l-5.1 4.6-5.2 4.7.5 1.3.5 1.3-.9.6-1 .6v4.3l-2.1 2.2-2 2.1-.4 2.9-.4 2.9h-.3l-.5 2-.6 2-.2 11.6-.3 11.6 1 5.7.9 5.8 1.4 1.4 1.5 1.5 1.5 3.2 1.5 3.3 7.4 7.8 7.4 7.9 1-.7 1-.6.5 1.4.5 1.3 3.8.8 3.8.7 2.6 1.3 2.5 1.3 4 .7 4 .7 1.7.2 1.6.2 1.4 1 1.3 1 3-.2 3-.1 5.5-1.1 5.5-1.1 3.5-.6 3.5-.6 3.5-1.8 3.5-1.8 3.8-1.2 3.8-1.3 6-6.1 6-6.2 2.9-3.1 3-3.1v-2l2.1-4.8 2.1-4.7v-33.3l-.6-3.5-.5-3.5-1.1-.3-1-.4v-2.7l-2.1-4.1-2.1-4-5.1-4.9-5.2-4.9-3.5-2.9-3.5-3-3-1.6-3-1.5-4-.3-4-.3-4-1.8-4-1.8-6 .2-6 .1zm12 16.7 4.7 1.4v-1.3l.8 1 .7 1 5 2.4 5 2.3 4.3 4.7 4.4 4.6 1.8 4.2 1.9 4.2-.2 1.9-.1 1.8 1.6 3.5 1.7 3.5-.6 5.7-.6 5.7h-1.8l.6 1 .6 1-1.2 4.2-1.1 4.3-.6 1.5-.5 1.5-.3 1.4-.3 1.4-3.3 3.5-3.3 3.6-2 1.9-2 1.9 1.4-.8 1.4-.7-.7 1.1-.7 1.2h-3.8l-.6 1.1-.7 1-1.1-.4-1.2-.4-2.5 1.2-2.5 1.3-8.5.6-8.5.7-3-1.2-3-1.2-1.2.2-1.3.2V438h-3.9l-2.6-1.2-2.5-1.1v-2.6l-1.9-1.3-1.8-1.3-3.7-5.7-3.6-5.7V416h-1.5v-21.8l.7.4.8.5-.6-3-.6-3.1 1.7-2.6 1.7-2.6-1.3.7-1.4.8 2.3-2.5 2.2-2.4v-1.5l3.8-4.1 3.7-4.1 1.9-1.8 1.8-1.8 4.9-1.2 4.9-1.3v-1.7l.9.5.9.6 3.8-1.4 3.9-1.5h1.1l1.1-.1zM502 345.7l-1.5.5-1.5.6-1.5.6-2.5.1-2.5.2-1.5.5-1.5.6-5 1.7-5 1.8-.5.6-.5.6-4.7 3.8-4.8 3.8-3.2 4.7-3.3 4.7-1.2 2-1.2 2-2.6 5.4-2.5 5.3v3.7l-1.1.7-1.2.7.8 6.1.7 6.1-.1 3.8-.1 3.8 1.3-.7 1.2-.8-1.3 1.6-1.3 1.6 1.6 6.6 1.5 6.7 1.8 3.8 1.9 3.9 1.4 1.7 1.4 1.7 2.9 2.9 2.9 2.8 1-.6 1-.6-.6 1-.6.9 4.5 4.8 4.4 4.8v-1.7l.8 1.1.7 1.1 6 1.8 6 1.7 5.5 1.4 5.5 1.3 7.5-.2 7.5-.2 3.8-2.4 3.7-2.3v1.4l1.5-1.2 1.5-1.2v1.3l2.2-2.1 2.2-2h1.5l4.6-4 4.6-4h1.7l1 1.2.9 1.3.7 4.7.7 4.6 1.2 1 1.2 1 7.6-.5 7.7-.5.8-8.7.8-8.6-.1-4.5-.2-4.5-.1-5.5-.2-5.5V410l-.1-7.5v-15l.1-8-.1-3.5-.1-3.5.7-6 .7-6-1.1-5.2-1.2-5.3H564v-1.8l-6.5-.1-6.4-.1-1.1 2-1 1.9 1 .6 1 .6-.5.9-.5.8 1.1 2.8 1 2.9-.7-.8-.7-.7-1.3 1-1.2 1.1-2.1.4-2.1.4-1-1.7-.9-1.7-.1.9v1l-3-4.1-3-4-3.2-.8-3.3-.8-1.5-.1h-1.5l-.5-.6-.5-.5-4.8-2.3-4.8-2.2-6.2.1-6.2.1zm13.4 16.9 3.6.6.6.9.5.8 6.7 2 6.7 2.1 3 3.7 3 3.8 2.3 3.4 2.4 3.5.9 2.4.9 2.5.5 5.1.5 5.1 1.4 5 1.4 5-1.7 1.9-1.6 1.9 1.5-.7 1.5-.7-1.7 1.4-1.8 1.4v2.2l-4.1 7.8-4 7.9-2.2 1-2.2 1 .3 1.2.2 1.2-1.2-.2-1.2-.3-.1 1.2v1.1l-.9.9-.9.8.7-1.3.7-1.2h-2l-.6 1.1-.7 1-1.4-.5-1.3-.5-.6.9-.5.9-4.4.6-4.4.7-4.4.2-4.3.2-3.5-1.3-3.5-1.4-4.2-.2-4.3-.2V437h-2.5l-2.7-2.4-2.8-2.3.5-.5.6-.5-3.1-3.3-3.1-3.3.7-2.1.7-2.1-1.7 1.4-1.7 1.4 1.1-2.7 1-2.7-.9.6-1 .5.1-1.7v-1.8l-.7-5-.6-5-1-3.9-1.1-3.9.7-3.6.7-3.6.6-1 .6-1 .3-1.6.2-1.6 1-2.7 1.1-2.6h2.2l-.6-1.5-.5-1.5.7.3.7.2 4.2-4.6 4.2-4.5 4.8-2.1 4.8-2.1 2-.8 2-.7 3-.4 3-.5.4-.4.5-.5 1.2.5 1.3.5zm665.1-16.5-4 .8-5.8.5-5.7.6-2.8 1.4-2.7 1.5.9.1h.9l-2.8 2.6-2.7 2.5-5.2 2.9-5.2 3-2.7 2.8-2.6 2.7-2 6.2-2 6.2-1.9 1.9-2 2-.6 6.4-.6 6.3-.3 7.4-.4 7.5 1.6 3 1.5 3.1.3 3 .3 3 1.2 4.4 1.3 4.4 8.5 8.6 8.5 8.6 2.5 1.6 2.5 1.6 3 .6 3 .6 3 1.2 3 1.2 1 .2 1 .1 2.6 1.1 2.5 1.1 5.6.7 5.6.7 7.4-1.2 7.3-1.1 8.3-4 8.2-4v-1.8l2.1-.6 2.2-.7 4.4-4.5 4.3-4.5 3.5-6.3 3.6-6.3 2.6-7.8 2.6-7.7-1.3-6.7-1.3-6.8.7-1.7.6-1.7-.6-1-.7-1.1-.2-4.1-.2-4.1-2.8-6.5-2.9-6.5-3-3.8-2.9-3.7h-3.5l-.5-1.9-.4-1.9-5.9-3.8-5.9-3.9-1.5-.3-1.5-.4-.6-.9-.6-1-2.4-.4-2.4-.4-7-1.1-7-1-3.5.1-3.5.1zm14.5 16.8v.6l2.4.1 2.4.2 4.8 2.3 4.7 2.4 3.4 3.6 3.4 3.6 2.4 4.6 2.3 4.6 1.8 5.7 1.7 5.6v7.7l-.1 7.6-.4 1.5-.4 1.5-3.1 5.5-3.2 5.5-1.5 2.7-1.5 2.7-5.3 3.4-5.3 3.3-5.6 1.7-5.7 1.7-8.8.1-8.8.2-.4-1.2-.4-1.1-.9.6-1 .6-1.6-1.4-1.7-1.3.9 1.5.8 1.5-2.2-1.9-2.2-2-1.5-.2-1.6-.2.6 1.4.6 1.5-1.1-.6-1-.7.4-1.1.4-1.2-4.4-8.1-4.3-8.1V415h-1.8l.2-3 .2-3h-1.1l.2-9.8.2-9.7.3-2.2.2-2.2.8.5.8.5v-3l3.9-4.8 3.9-4.8 2.8-3 2.8-3-.2-.5-.2-.5h2.5l1.3-1.3 1.3-1.2 1.2-.1 1.2-.1 1.8-.3 1.9-.3.4-.5.5-.5 7.9.1h8zm-338.1-15.3-.2.9-.3 13.5-.3 13.5v7l.1 7 .1 6v6l-.7 8-.7 8-1.6 5.5-1.5 5.5-.2 1.2-.2 1.1-5.7 4.7-5.7 4.6V439l-2.7 1.1-2.8 1.1-2.5.4-2.5.5-1.8.5-1.8.6-1.6-1.4-1.6-1.3-.1.4-.1.3-4.5-1.2-4.5-1.2-1.5-.6-1.5-.6H809l-1.5-.1v-2.7l-1.5-1.1-1.5-1.2-2.4-3.5-2.5-3.4-1.2-5.3-1.2-5.3 1 .6 1.1.7-.9-5.9-.9-5.9V398l.1-6.5.8-4.8.8-4.8-1-1.2-.9-1.2-.6-2.4-.6-2.5 1.6-3.4 1.6-3.4-1.1-4.7-1.2-4.6-.2-3.8-.2-3.7h-2.1l1.5-1 1.4-.9-1.4-.5-1.5-.6-8.4.3-8.4.3-1.4 2.1-1.4 2.1 1.5 3.5 1.4 3.5-.6 3.9-.6 3.8v19l.1 3 .1 3 .2 13.5.1 13.5 2.5 7.3 2.5 7.2.2 2 .1 2h1.6l3.6 5 3.6 5h2.8v1.5l3.4 1.9 3.4 1.8 1.1-.6 1.1-.7v1.8l4.5 1.8 4.5 1.7 5.8.9 5.7 1 2.8.3 2.7.4v-2l1.5 1.2 1.5 1.2v-1.7l4.3-.1 4.2-.1 3-.8 3-.7 4.5-2 4.5-2.1 2.2-1 2.2-1 3.3-3.2 3.3-3.2 1.2-1.6 1.2-1.5-.6-.6-.6-.6h2.2l.7-2.3.6-2.2 1.1-1.4 1.1-1.3 1.1-3.2 1-3.1v-12l.9-.6.8-.7-.1-16.3-.2-16.4.1-5.5.1-5.5v-8l.1-8-.4-1.7-.4-1.7-.7-.7-.6-.7-3.8-.2-3.8-.3-5.2-.7-5.3-.8zm231.2 2.2-1.1 2.1V364h1.7l-.4 4.2-.3 4.3-.4 5-.5 5 .1 16v22l-.1 6 .1 11v11l.1 3.5.2 3.5 6-.2 6-.1 2.6-.1 2.5-.1 2.2-4.7 2.2-4.7-1-1-1-1V435h-2.5l1.1-.8 1.1-.7.3-8 .3-8v-51l.1-5-.6-4.5-.6-4.5-.6-1.6-.7-1.6-1.2-.1-1.2-.2-6.7-.6-6.6-.6zm17.6 88.4-.5 1.3-.1-1.9-.1-1.9.6.6.6.6zM1052 436v1.5l-.8-1.2-.8-1.3-3.9 1.1-4 1.1-.9.9-1 .9h2.9l-1.1.8-1.1.7-.6 6.5-.6 6.6.9 1.4.9 1.5h14.9l2.1-2.4 2.1-2.4v-.8l-1.2.8-1.3.7 1.8-2.8 1.9-2.8-.7-4.9-.7-4.9-1.8-1-1.7-.9-.7.6-.6.6v-2.2l-2 .2-2 .1z"/></svg>