<svg xmlns="http://www.w3.org/2000/svg" width="1834.667" height="1024" viewBox="0 0 1376 768"><path fill="#fff" d="m1009.5 294.6-4 1.4-7.2 2.6-7.2 2.6v.6l.1.7-.1 28.8-.1 28.9-4.4-3.9-4.4-3.9-4.9-2.7-4.9-2.6-5.9-1.6-5.9-1.5h-15.8l-6.2 1.6-6.1 1.6-6 3.1-6 3.2-6.1 6.1-6 6.2-3.2 6.4-3.1 6.4-1.6 6.5-1.5 6.4v22.1l1.5 5.8 1.5 5.8 2.7 5.4 2.7 5.5 4.8 5.5 4.8 5.5v-1.4l2.1 2.6 2 2.7 8.2 4 8.2 4.1 7.4 1.1 7.3 1.1 8.2-1.2 8.1-1.1 7.2-3.5 7.1-3.5 5.1-5.6 5.1-5.6.4 1.4.5 1.3 1.5 6.3 1.6 6.4v.8h18V293l-.8.1h-.7zm-39 72.8 5 2.3 3.1 2.6 3.1 2.6.7-.7.8-.7-.3 1-.3 1 3.7 7.6 3.8 7.5.6 7.6.6 7.5-1.3 5.4-1.3 5.4-2.8 5.7-2.9 5.7-1 .6-1 .6.6 1.2.7 1.2-.8-.7-.8-.7-2.8 2.4-2.9 2.3-5.7 2.3-5.8 2.2-7.5.1h-7.5l-4.4-1.3-4.5-1.3-6.1-6.1-6.2-6.2-2.3-6-2.3-6-.5-9-.4-9 1.6-5.5 1.6-5.5 3.8-5.5 3.7-5.5h1l3.5-2.7 3.5-2.6 3.5-1 3.5-1 9-.1 9-.1zm-367.7-69.1-10.8 4.2V457h23l.5-2.3.6-2.2-.3-78.9-.3-78.9-1-.3-1-.3zm483.4 3.9-1.2 1.2v16.7l1 2 1.1 1.9h19.7l1.1-1.4 1.2-1.4-.3-9.8-.3-9.9-10.5-.3-10.5-.3zm-921.4 11.3-11.8 3.9v26.4l-4.7 1.8-4.8 1.7-6.5 2.6-6.5 2.7-.1 6.7-.2 6.7H153v56.1l1.1 7.2 1.1 7.2 2.9 6.2 3 6.3 4.5 3.5 4.6 3.4 5.4 2.1 5.5 2 6.7.6 6.7.6 7.4-1.1 7.5-1.2 4.2-1.9 4.3-1.8-2-6.9-2.1-6.8-.5-2.3-.6-2.4-2.6.7-2.6.6-9.5.5-9.5.5-3.5-1.8-3.4-1.8-2.1-3.5-2-3.5v-62l18.5-.5 18.5-.5.3-9.3.3-9.2H178l-.2-.3-.2-.2-.5-18.5-.6-18.5zm228.7-1.4-6 1.9-4.2 1.6-4.2 1.5-.3 13.2-.3 13.1-11.2 4.5-11.3 4.5V366h21.7l.6 31.7.5 31.8 2.1 6.6 2.1 6.6 3 4.2 3.1 4.2 4.6 2.9 4.6 2.9 5.1 1.8 5.1 1.7h20l6.2-1.8 6.3-1.9 1-1.2 1-1.2-2.2-8.4-2.2-8.4-.2-.3-.2-.4-7.7 1.7-7.6 1.7-4.7-.7-4.7-.7-3.3-1.5-3.3-1.6-1.9-3.7-1.9-3.8-.5-15.3-.5-15.4.6-15.8.6-15.7H440v-19h-37v-33.8l-.6-1.6-.6-1.6-1.2.1-1.1.1zm-114 32-5.9.9-5.5 1.6-5.5 1.6-6 3-6.1 3-6.5 6.7-6.5 6.6-3.2 6.6-3.2 6.5-1.6 6.5-1.5 6.4v16l1.5 7 1.5 7 3.1 6.1 3 6.1 3.7 4.4 3.7 4.5 4.7 3.8 4.7 3.7 6.3 2.8 6.3 2.8 5.5 1.4 5.5 1.3h10.1l10-.1 7.5-2.2 7.4-2.3 5.7-3 5.7-3 6.1-6.4 6-6.3 3-6.3 3-6.4 2.1-8.4 2.2-8.5-.6-9.5-.6-9.5-2-6.5-2-6.5-3.8-6.4-3.8-6.4-6-5-6-5-6-2.8-6-2.8-6-1.5-6-1.4-6-.5-6-.5zm23 23.8 6 2.8 3.4 3.4 3.4 3.4 3.1 6.5 3.1 6.5v23.1l-3.8 7.7-3.8 7.7-3.5 2.8-3.4 2.7-.1 1.5-.1 1.5-.4-1.2-.5-1.2-4.2 1.8-4.2 1.8-5.6.7-5.5.7-6.3-1-6.2-1-4.5-2.3-4.6-2.2-3.5-3.9-3.5-4-2.5-5.3-2.4-5.4-1.1-6.5-1.1-6.5 1.1-6.5 1.1-6.5 2.4-5.3 2.4-5.3 3.2-3.7 3.2-3.6 5.3-2.6 5.2-2.5 4.4-1 4.5-.9 6.5.5 6.5.5zM503 343.7l-3.5.4-6.2 1.4-6.3 1.5-6.5 3.2-6.6 3.2-6 6.3-5.9 6.4-2.6 5.2-2.7 5.2-1.9 5.5-1.9 5.5-.6 9.6-.6 9.5 1.2 6.9 1.2 6.9 1.9 5.3 1.9 5.4 4.6 6.5 4.7 6.5 5.1 4.1 5.2 4.1 6.8 3.3 6.8 3.2 7.2 1.2 7.1 1.3 8.1-1.2 8-1.1 6.5-3.2 6.5-3.2 5.7-5.6 5.7-5.7.5 2.6.5 2.6.6 5.2.7 5.3H569V347h-19.7l-1.1 6.6-1.1 6.6-.5.5-.4.5-3.8-4.2-3.7-4.1-1.3.5-1.4.5.3-1.2.2-1.2-1.7.1-1.7.2.1-.7v-.6l-.1-1-.1-1-1 1.5-1 1.5v-3.3l-4.7-1.6-4.8-1.5-6.5-1.1-6.5-1-1 .2-1 .1zm22.6 23.7 5.1 2.4 4.2 3.7 4.1 3.7 3.3 6.7 3.2 6.6v23l-3.3 6.9-3.3 7-3.8 3.6-3.8 3.7-6.4 2.4-6.4 2.4h-16l-5.2-1.8-5.1-1.8-4.7-4.1-4.6-4.1-2.3-4.6-2.4-4.6-1.2-4.5-1.2-4.5v-16.4l1.8-5.3 1.7-5.3 2.2-3.5 2.3-3.6 3.8-3.3 3.8-3.4 3.4-1.4 3.5-1.5 4.1-.8 4.1-.9 7 .5 6.9.5zM675.2 346l-7.4 2-5.1 2.9-5.2 3-4.6 4.4-4.6 4.4-3.6 6.4-3.5 6.4-2.4 7.5-2.3 7.5.1 12 .1 12 2.6 8.1 2.7 8.1 3.8 5.9 3.9 5.9 2.6 2.7 2.6 2.8 6.1 3.9 6.1 4 6.2 2 6.2 2.1 7.5.6 7.5.6 6-1.1 6-1.1 6.3-3.1 6.4-3.1 5.3-5.4 5.3-5.4h.9l1.2 5.7 1.2 5.8.5 1.7.5 1.8H753V346.9l-9.2.3-9.2.3-2.1 7.3-2.1 7.2-5.3-5.4-5.3-5.4-5.3-2.6-5.2-2.5-4.4-1-4.4-1.1-9 .1h-9zm31.6 20.3 4.3 1.5 4.1 2.9 4.1 2.8 2.8 3.9 2.8 3.8 2.3 5.7 2.2 5.6v19l-2.2 5.6-2.3 5.7-3 4.1-3 4.2-4.4 2.8-4.4 2.8.5.6.5.5-1.3-.1-1.3-.1-6 1.3-6 1.3-6-.5-6-.6-4-1.7-4-1.6-3.6-2.9-3.6-2.8-.8.7-.8.7.6-1 .6-1.1-3-4.4-2.9-4.3-1.5-5-1.5-5.1v-17.1l1.5-5 1.5-5 3.3-4.8 3.2-4.8 5.2-3.6 5.2-3.6 4.8-1.3 4.8-1.4 6.5.4 6.5.4zm463.1-19.9-7.6 2.2-7.1 4.2-7 4.2-4.2 4.7-4.1 4.7-4 8-3.9 8.1-1.6 7.5-1.6 7.5.5 8.5.6 8.5 2.5 8 2.6 8 4.5 6.8 4.6 6.8 5.9 4.3 5.9 4.4 7.5 3.1 7.6 3.1 8.1 1.2 8.2 1.2 8.4-1.3 8.4-1.2 6.2-2.2 6.2-2.3 5.8-3.8 5.7-3.8 4.4-5.2 4.4-5.1 2.2-4.5 2.2-4.4 2-5.6 1.9-5.5.6-11 .5-11-1.6-7.3-1.5-7.3-3.3-6.7-3.2-6.7-6.6-6.6-6.5-6.6-6.5-3.1-6.5-3.2-7-1.5-7-1.5-9.5.1h-9.5zm32 20.9 5.5 2 4.7 4.4 4.7 4.4 2.1 4.9 2.1 5 1 7.6 1 7.7-1.1 6.5-1 6.5-2.1 4.8-2 4.8-5.1 4.8-5.2 4.8.2.5.2.6-1.7.1-1.7.1-6 1.7-6 1.7-6.5-.5-6.5-.6-4.9-1.8-4.9-1.8-4.7-4.2-4.7-4.2-2.8-6.2-2.7-6.2-.7-7.1-.6-7.1.7-5.8.8-5.8 2.5-5.3 2.5-5.3 4.2-4.2 4.2-4.1 4.2-2 4.2-2.1 4.3-.9 4.4-.8 6 .5 6 .5zm-426.7 15.9.5 36.3 1.7 6 1.7 6 2.1 4.5 2.2 4.5 6.2 6.3 6.3 6.3 5.8 2.5 5.8 2.6 6.5 1.4 6.5 1.4h13.1l5.9-1.1 6-1.1 6.2-2.8 6.3-2.9 5.6-5.3 5.6-5.3 2.6-4.4 2.5-4.4 2-6.6 2-6.6.5-36.8.4-36.7h-24.1l-.3 35.7-.3 35.8-2.3 5.6-2.3 5.7-2.7 2.7-2.7 2.8-4.5 2.1-4.5 2.1h-16l-3.9-1.4-3.9-1.3-3.8-3.5-3.8-3.5-2.3-5.6-2.3-5.7-.3-35.8-.3-35.7h-24.1zm309.8 17.2v53.4l.6 1.6.6 1.6h22.8V347h-24zm-44.5 33.9-2 1.5v19.6l1.4 1.4 1.5 1.4 9.3-.4 9.3-.4 1-1 1-1 .2-9.6.3-9.7-1.3-1.3-1.3-1.3-8.7-.3-8.7-.3z"/></svg>